<svg id="SvgjsSvg1001" width="288" height="288" xmlns="http://www.w3.org/2000/svg" version="1.1" xmlns:xlink="http://www.w3.org/1999/xlink" xmlns:svgjs="http://svgjs.com/svgjs"><defs id="SvgjsDefs1002"></defs><g id="SvgjsG1008"><svg xmlns="http://www.w3.org/2000/svg" version="1.0" viewBox="0 0 876 892" width="288" height="288"><g transform="matrix(.1 0 0 -.1 0 892)" fill="#ffffff" class="color000 svgShape"><path d="M4189 8826 c-2 -2 -62 -6 -134 -10 -790 -40 -1664 -317 -2285 -724-907 -593 -1354 -1428 -1245 -2322 104 -846 714 -1587 1701 -2061 483 -233
997 -378 1596 -450 196 -23 701 -34 913 -19 642 46 1288 216 1835 486 400 197
720 423 991 701 341 350 548 719 643 1143 67 300 59 702 -18 995 -78 294 -239
609 -441 860 -344 429 -878 805 -1486 1046 -436 173 -991 305 -1404 334 -49 4
-103 8 -120 11 -38 6 -540 15 -546 10z m386 -382 c194 -48 356 -144 521 -308
332 -332 578 -878 674 -1495 l17 -113 -62 -28 c-220 -99 -526 -191 -795 -240
-604 -110 -1245 -32 -1857 226 -107 45 -102 34 -78 179 137 804 509 1455 968
1694 195 102 416 132 612 85z m-1198 -134 c-368 -384 -648 -1044 -732 -1727
l-7 -52 -92 -45 c-249 -122 -425 -166 -666 -166 -271 0 -489 66 -718 218 -89
58 -181 134 -182 148 -1 21 130 273 190 364 323 491 862 889 1550 1145 135 50
209 73 345 111 123 33 379 92 384 88 2 -2 -30 -40 -72 -84z m2225 22 c70 -18
207 -58 305 -90 862 -285 1503 -786 1814 -1417 32 -65 59 -127 59 -136 0 -31
-190 -169 -326 -237 -189 -95 -350 -132 -572 -132 -234 0 -411 43 -636 155
l-121 60 -12 90 c-93 678 -365 1304 -739 1698 -35 37 -64 69 -64 70 0 5 154
-28 292 -61z m2308 -2425 c-30 -377 -160 -705 -408 -1027 -77 -101 -192 -230
-204 -230 -4 0 -8 290 -8 644 l0 643 98 32 c122 40 310 132 427 208 l90 59 8
-100 c4 -59 3 -155 -3 -229z m-6949 263 c116 -76 287 -160 412 -200 l97 -32 0
-646 -1 -647 -74 78 c-82 86 -221 268 -277 362 -182 306 -268 609 -268 945 0
138 5 200 16 200 2 0 44 -27 95 -60z m2080 -124 c195 -76 560 -165 795 -192
l54 -7 0 -1053 c0 -580 -3 -1054 -7 -1054 -17 0 -166 122 -238 195 -137 138
-249 301 -358 520 -71 143 -151 348 -187 480 -4 17 -17 64 -28 105 -40 144
-76 342 -98 528 -14 121 -32 512 -23 512 2 0 43 -15 90 -34z m2769 -108 c0
-277 -44 -611 -119 -898 -126 -487 -346 -896 -618 -1150 -68 -64 -182 -150
-197 -150 -4 0 -6 472 -6 1050 l0 1049 33 5 c355 59 681 141 848 215 24 11 47
20 52 20 4 1 7 -63 7 -141z m-3199 15 c0 -54 2 -116 4 -138 2 -22 9 -101 15
-175 59 -700 299 -1350 667 -1805 45 -55 97 -116 117 -134 20 -19 36 -38 36
-42 0 -4 -24 -1 -52 6 -29 7 -105 25 -168 40 -171 40 -385 108 -570 182 -157
62 -420 187 -501 239 l-39 24 2 878 3 877 25 3 c85 10 369 98 430 133 28 16
30 9 31 -88z m3650 56 c105 -42 311 -99 355 -99 l24 0 0 -882 0 -883 -43 -24
c-328 -181 -681 -320 -1042 -410 -206 -51 -245 -59 -245 -52 0 4 21 27 46 51
226 220 471 652 603 1062 119 370 191 815 191 1181 0 53 2 97 4 97 2 0 50 -19
107 -41z" fill="#ffffff" class="color000 svgShape"></path><path d="M4280 7583c-206-34-392-205-456-418-28-93-25-260 5-350 56-163 149-275 291-349 223-116 479-76 661 104 120 118 179 260 179 428 0 280-193 525-458 581-51 11-170 13-222 4zM1771 7335c-30-9-76-27-103-42-60-33-147-124-176-185-92-196-58-439 79-562 126-114 337-128 487-32 107 68 187 198 201 326 24 225-57 405-215 477-71 32-193 40-273 18zM6780 7336c-143-39-242-148-270-297-47-244 50-459 248-552 62-29 75-32 172-32 97 0 110 2 170 31 146 70 219 199 220 389 0 94-19 178-58 249-90 166-305 261-482 212zM1034 2818c18-61 17-89-2-144-11-33-66-192-122-354-56-162-171-495-255-740-84-245-174-505-199-578-25-73-57-157-71-185-31-61-103-138-163-174-50-30-152-63-193-63-28 0-29-2-29-45l0-45 456 0 455 0-3 42c-3 41-4 43-38 46-75 6-179 34-219 60-46 30-81 90-81 140 0 18 29 121 65 230 35 108 83 257 107 330l42 132 377 0 378 0 29-77c126-328 222-595 222-617 0-72-64-144-152-172-29-9-88-18-130-21l-78-6 0-43 0-44 1068 0c1153 1 1136 0 1297 55 209 72 380 180 551 350 239 238 339 456 338 735-3 561-330 964-904 1114-191 50-388 71-645 71-410-1-823-6-912-12l-103-6 0-37 0-36 73-12c138-24 223-84 246-178 8-29 11-317 11-907 0-936 0-931-54-994-20-23-32-28-66-27-87 3-167 100-241 294-115 300-452 1185-632 1660l-105 275-162 3-162 3 6-23zm2428-117c296-51 504-166 646-359 93-124 155-274 189-455 22-116 25-441 5-532-56-253-159-427-332-560-215-165-501-238-850-215-200 13-293 49-342 134l-23 41-3 983-2 982 299 0c251 0 317-3 413-19zm-2152-616c84-225 155-416 158-422 3-10-62-13-307-13-171 0-311 3-311 7 0 4 7 25 15 48 15 42 93 269 195 570 75 223 81 238 90 228 4-4 76-192 160-418z" fill="#ffffff" class="color000 svgShape"></path><path d="M4622 2784 l3 -59 47 -6 c132 -19 209 -59 248 -129 l25 -45 0 -870
c0 -988 4 -936 -80 -1014 -46 -42 -147 -81 -211 -81 -34 0 -34 -1 -34 -45 l0
-45 530 0 530 0 0 45 0 45 -40 0 c-122 0 -288 62 -337 126 -49 65 -53 101 -53
466 l0 338 156 0 c85 0 187 5 226 11 68 11 71 10 93 -13 12 -12 81 -114 153
-225 176 -273 286 -418 411 -544 165 -165 306 -244 491 -276 87 -16 139 -14
308 8 l92 12 0 48 0 49 -56 0 c-122 0 -258 51 -283 107 -26 56 -13 112 101
451 l113 332 375 0 375 0 43 -123 c57 -158 126 -351 163 -453 64 -176 25 -254
-149 -295 -42 -11 -98 -19 -124 -19 l-48 0 0 -45 0 -45 535 0 535 0 0 44 0 43
-65 6 c-114 11 -203 63 -268 159 -20 29 -64 125 -97 213 -63 164 -162 429
-509 1350 l-199 530 -166 3 c-181 3 -175 5 -152 -58 12 -33 7 -52 -111 -400
-69 -201 -173 -509 -233 -685 -277 -821 -296 -875 -309 -888 -25 -25 -117 65
-247 239 -122 166 -354 536 -354 565 0 21 23 40 90 75 72 38 178 145 212 214
15 30 34 82 43 115 21 81 21 280 0 359 -52 194 -212 340 -445 405 -186 51
-213 53 -788 58 l-543 5 3 -58z m1053 -59 c137 -38 240 -109 309 -214 54 -81
81 -160 97 -279 24 -175 -31 -342 -151 -462 -126 -126 -261 -170 -519 -170
l-161 0 0 576 0 576 183 -5 c125 -3 201 -10 242 -22z m1798 -370 c125 -337
257 -697 257 -701 0 -2 -137 -4 -305 -4 -168 0 -305 3 -305 7 0 4 27 91 61
193 33 102 94 289 135 415 41 127 77 236 80 244 8 24 19 1 77 -154z" fill="#ffffff" class="color000 svgShape"></path></g></svg></g></svg>